<svg xmlns="http://www.w3.org/2000/svg" viewBox="0 0 64 64">
  <g fill="#E0D5C6" stroke="#3D352F" stroke-width="1.5">
    <rect x="20.5" y="4" width="9" height="26" rx="4.5" transform="rotate(-8 25 17)"/>
    <rect x="34.5" y="4" width="9" height="26" rx="4.5" transform="rotate(8 39 17)"/>
    <circle cx="32" cy="42" r="16"/>
  </g>
  <path fill="#E3B3B3" d="M23.4 8.2c1.4-.2 2.8 1 3 2.6l1.5 12.4-4.1.5-1.7-12.3c-.2-1.6.3-3 1.3-3.2Z"/>
  <path fill="#E3B3B3" d="M40.6 8.2c-1.4-.2-2.8 1-3 2.6l-1.5 12.4 4.1.5 1.7-12.3c.2-1.6-.3-3-1.3-3.2Z"/>
  <path fill="#6E93AE" d="M17.8 44.5c4.6 5.5 9.4 8.2 14.2 8.2s9.7-2.7 14.2-8.2A16 16 0 0 1 32 58a16 16 0 0 1-14.2-13.5Z"/>
  <circle cx="26" cy="40" r="2.2" fill="#3D352F"/>
  <circle cx="38" cy="40" r="2.2" fill="#3D352F"/>
  <path d="M29.3 46.8c1.5 1.6 3.9 1.6 5.4 0" stroke="#3D352F" stroke-width="2" stroke-linecap="round" fill="none"/>
</svg>
